<svg xmlns="http://www.w3.org/2000/svg" version="1.1" xmlns:xlink="http://www.w3.org/1999/xlink" xmlns:svgjs="http://svgjs.dev/svgjs" width="2000" height="1500" viewBox="0 0 2000 1500"><rect width="2000" height="1500" fill="#d9f2f4"></rect><g transform="matrix(0.75,0,0,0.75,249.090909090909,575.0153730535721)"><svg viewBox="0 0 396 92" data-background-color="#d9f2f4" preserveAspectRatio="xMidYMid meet" height="464" width="2000" xmlns="http://www.w3.org/2000/svg" xmlns:xlink="http://www.w3.org/1999/xlink"><g id="tight-bounds" transform="matrix(1,0,0,1,0.2400000000000091,0.2603036754924233)"><svg viewBox="0 0 395.52 91.47939264901513" height="91.47939264901513" width="395.52"><g><svg viewBox="0 0 482.153058924972 111.51665906735751" height="91.47939264901513" width="395.52"><g transform="matrix(1,0,0,1,0,15.412215544041452)"><svg viewBox="0 0 395.52 80.6922279792746" height="80.6922279792746" width="395.52"><g id="textblocktransform"><svg viewBox="0 0 395.52 80.6922279792746" height="80.6922279792746" width="395.52" id="textblock"><g><svg viewBox="0 0 395.52 80.6922279792746" height="80.6922279792746" width="395.52"><g transform="matrix(1,0,0,1,0,0)"><svg width="395.52" viewBox="0.63 -33.33 214.42000000000002 43.75" height="80.6922279792746" data-palette-color="#000000"><g class="wordmark-text-0" data-fill-palette-color="primary" id="text-0"><path d="M4.62 0L0.63 0 13.85-32.29 13.92-32.29 27.15 0 22.95 0 19.27-9.27 8.33-9.27 4.62 0ZM12.12-18.75L9.65-12.57 17.95-12.57 15.49-18.75Q15.03-19.93 14.62-21.08 14.2-22.22 13.78-23.82L13.78-23.82Q13.37-22.22 12.99-21.09 12.6-19.97 12.12-18.75L12.12-18.75ZM50.83 10.42L47.08 10.42 47.08-2.47Q45.69-1.18 43.89-0.45 42.08 0.28 40.03 0.28L40.03 0.28Q37.19 0.28 34.82-1.16 32.46-2.6 31.06-5.03 29.65-7.47 29.65-10.42L29.65-10.42Q29.65-13.37 31.06-15.8 32.46-18.23 34.82-19.67 37.19-21.11 40.03-21.11L40.03-21.11Q42.19-21.11 44.08-20.31 45.97-19.51 47.36-18.09L47.36-18.09 47.36-20.83 50.83-20.83 50.83 10.42ZM40.52-3.13L40.52-3.13Q42.5-3.13 44.11-4.11 45.73-5.1 46.68-6.75 47.64-8.4 47.64-10.42L47.64-10.42Q47.64-12.43 46.68-14.08 45.73-15.73 44.11-16.72 42.5-17.71 40.52-17.71L40.52-17.71Q38.54-17.71 36.92-16.72 35.31-15.73 34.36-14.08 33.4-12.43 33.4-10.42L33.4-10.42Q33.4-8.4 34.36-6.75 35.31-5.1 36.92-4.11 38.54-3.13 40.52-3.13ZM65.45 0.42L65.45 0.42Q63.26 0.42 61.35-0.68 59.44-1.77 58.26-3.85 57.08-5.94 57.08-8.85L57.08-8.85 57.08-20.83 60.83-20.83 60.83-9.38Q60.83-6.91 62.3-5.02 63.78-3.13 66.45-3.13L66.45-3.13Q68.64-3.13 70.36-4.7 72.08-6.28 72.08-9.27L72.08-9.27 72.08-20.83 75.83-20.83 75.83 0 72.36 0 72.36-3.37Q71.21-1.53 69.39-0.56 67.56 0.42 65.45 0.42ZM91.42 0.28L91.42 0.28Q88.57 0.28 86.21-1.16 83.85-2.6 82.44-5.03 81.03-7.47 81.03-10.42L81.03-10.42Q81.03-13.37 82.44-15.8 83.85-18.23 86.21-19.67 88.57-21.11 91.42-21.11L91.42-21.11Q93.57-21.11 95.46-20.31 97.35-19.51 98.74-18.09L98.74-18.09 98.74-20.83 102.21-20.83 102.21 0 98.74 0 98.74-2.74Q97.35-1.35 95.46-0.54 93.57 0.28 91.42 0.28ZM91.9-3.13L91.9-3.13Q93.88-3.13 95.5-4.11 97.11-5.1 98.07-6.75 99.02-8.4 99.02-10.42L99.02-10.42Q99.02-12.43 98.07-14.08 97.11-15.73 95.5-16.72 93.88-17.71 91.9-17.71L91.9-17.71Q89.92-17.71 88.31-16.72 86.69-15.73 85.74-14.08 84.78-12.43 84.78-10.42L84.78-10.42Q84.78-8.4 85.74-6.75 86.69-5.1 88.31-4.11 89.92-3.13 91.9-3.13ZM115.55-27.71L107.21-27.71 107.21-31.25 127.84-31.25 127.84-27.71 119.5-27.71 119.5 0 115.55 0 115.55-27.71ZM136.58 0L132.83 0 132.83-20.83 136.31-20.83 136.31-17.01Q137.42-18.85 139.26-19.95 141.1-21.04 143.63-21.04L143.63-21.04 144.57-17.29Q143.91-17.5 143.04-17.5L143.04-17.5Q140.13-17.5 138.36-15.64 136.58-13.78 136.58-10.35L136.58-10.35 136.58 0ZM157.38 0.28L157.38 0.28Q154.53 0.28 152.17-1.16 149.81-2.6 148.41-5.03 147-7.47 147-10.42L147-10.42Q147-13.37 148.41-15.8 149.81-18.23 152.17-19.67 154.53-21.11 157.38-21.11L157.38-21.11Q159.53-21.11 161.43-20.31 163.32-19.51 164.71-18.09L164.71-18.09 164.71-20.83 168.18-20.83 168.18 0 164.71 0 164.71-2.74Q163.32-1.35 161.43-0.54 159.53 0.28 157.38 0.28ZM157.87-3.13L157.87-3.13Q159.85-3.13 161.46-4.11 163.08-5.1 164.03-6.75 164.99-8.4 164.99-10.42L164.99-10.42Q164.99-12.43 164.03-14.08 163.08-15.73 161.46-16.72 159.85-17.71 157.87-17.71L157.87-17.71Q155.89-17.71 154.27-16.72 152.66-15.73 151.7-14.08 150.75-12.43 150.75-10.42L150.75-10.42Q150.75-8.4 151.7-6.75 152.66-5.1 154.27-4.11 155.89-3.13 157.87-3.13ZM184.43 0.42L184.43 0.42Q181.37 0.42 178.87-1.04 176.37-2.5 174.88-4.97 173.39-7.43 173.39-10.42L173.39-10.42Q173.39-13.4 174.88-15.87 176.37-18.33 178.87-19.79 181.37-21.25 184.43-21.25L184.43-21.25Q186.68-21.25 188.66-20.45 190.64-19.65 192.14-18.33L192.14-18.33 190.99-13.61Q190.12-15.35 188.37-16.53 186.61-17.71 184.39-17.71L184.39-17.71Q182.38-17.71 180.73-16.72 179.08-15.73 178.11-14.08 177.14-12.43 177.14-10.42L177.14-10.42Q177.14-8.44 178.11-6.77 179.08-5.1 180.73-4.11 182.38-3.13 184.39-3.13L184.39-3.13Q186.61-3.13 188.37-4.27 190.12-5.42 190.99-7.22L190.99-7.22 192.14-2.5Q190.64-1.18 188.66-0.38 186.68 0.42 184.43 0.42ZM215.05 0L210.29 0 200.88-11.46 208.63-20.83 212.97-20.83 205.36-11.74 215.05 0ZM200.47 0L196.72 0 196.72-33.33 200.47-33.33 200.47 0Z" fill="#000000" data-fill-palette-color="primary"></path></g></svg></g></svg></g></svg></g></svg></g><g transform="matrix(1,0,0,1,414.5694984124352,0)"><svg viewBox="0 0 67.58356051253679 111.51665906735751" height="111.51665906735751" width="67.58356051253679"><g><svg xmlns="http://www.w3.org/2000/svg" xmlns:xlink="http://www.w3.org/1999/xlink" version="1.1" x="0" y="0" viewBox="24.3409043688759 7.654 51.318258500049936 84.678" enable-background="new 0 0 100 100" xml:space="preserve" height="111.51665906735751" width="67.58356051253679" class="icon-icon-0" data-fill-palette-color="accent" id="icon-0"><g fill="#1ab5bd" data-fill-palette-color="accent"><path fill="#1ab5bd" d="M69.231 64.095C66.81 64.095 64.584 63.163 62.922 61.496A9.06 9.06 0 0 1 56.579 64.095 9.03 9.03 0 0 1 50.18 61.418C48.464 63.071 46.003 64.095 43.511 64.095A9.05 9.05 0 0 1 37.172 61.496C35.511 63.163 33.284 64.095 30.865 64.095A9.04 9.04 0 0 1 24.824 61.772C21.699 77.958 34.157 92.332 50.001 92.332 65.818 92.332 78.261 78.005 75.191 61.852A9.04 9.04 0 0 1 69.231 64.095" data-fill-palette-color="accent"></path><path fill="#1ab5bd" d="M56.58 61.556C58.691 61.556 60.677 60.395 61.893 58.668 62.133 58.33 62.52 58 62.933 58H62.937C63.351 58 63.739 58.334 63.975 58.674 65.191 60.422 67.108 61.49 69.232 61.49 71.298 61.49 73.235 60.53 74.457 58.871A30 30 0 0 0 72.69 54.399C63.127 34.916 60.078 29.174 50.001 7.654 40.756 28.36 36.872 34.93 27.312 54.414A30 30 0 0 0 25.572 58.817 6.5 6.5 0 0 0 30.866 61.554C32.988 61.554 34.904 60.551 36.121 58.803 36.358 58.462 36.72 58.232 37.164 58.258 37.576 58.258 37.963 58.459 38.201 58.797A6.51 6.51 0 0 0 43.512 61.555C45.728 61.555 47.994 60.431 49.152 58.758 49.169 58.734 49.19 58.714 49.209 58.692 49.238 58.657 49.265 58.619 49.299 58.588 49.336 58.55 49.375 58.519 49.416 58.486 49.435 58.471 49.452 58.453 49.473 58.437L49.49 58.429C49.534 58.398 49.583 58.374 49.631 58.349 49.66 58.335 49.686 58.318 49.714 58.307 49.756 58.289 49.8 58.279 49.843 58.267 49.879 58.256 49.915 58.242 49.951 58.235 49.993 58.227 50.034 58.226 50.076 58.222 50.116 58.218 50.154 58.212 50.192 58.212A1 1 0 0 1 50.326 58.225C50.362 58.227 50.399 58.228 50.434 58.235A1 1 0 0 1 50.559 58.271C50.596 58.282 50.634 58.291 50.671 58.305 50.706 58.318 50.739 58.339 50.774 58.358A1 1 0 0 1 50.896 58.424L50.918 58.437C50.944 58.455 50.965 58.479 50.99 58.498 51.024 58.526 51.057 58.552 51.089 58.583 51.125 58.618 51.155 58.659 51.187 58.696 51.204 58.718 51.223 58.736 51.238 58.758A6.5 6.5 0 0 0 56.58 61.556" data-fill-palette-color="accent"></path></g></svg></g></svg></g></svg></g><defs></defs></svg><rect width="395.52" height="91.47939264901513" fill="none" stroke="none" visibility="hidden"></rect></g></svg></g></svg>