<svg xmlns="http://www.w3.org/2000/svg" xmlns:xlink="http://www.w3.org/1999/xlink" viewBox="0 0 500 500"><defs><clipPath id="freepik--clip-path--inject-4"><path d="M344.84,468.5c.42-8.88.54-29.33-5.52-48.41-8-25.29-24.08-59.4-27.69-65s0-12,0-12a191.57,191.57,0,0,0,9.23-43.75s2,.81,7.62,6,56.16,36.24,64.18,37.85,19.95-2.27,22.76-7.89-52.82-64.07-67.67-78.52-51-12-57-15.65-6.43-8.43-2.41-23.68,17.26-29.3,18.86-41.74-7.62-36.52-28.49-49S243,121.49,243,121.49s-11.64,10-13.25,17.66-.8,10.43-6,13.64-13.24,2-12.44,4.82,2.81,9.63,6.82,10c0,0-5.62,5.22-4.41,7.63a12,12,0,0,1,1.2,4.81s-1.2,3.21,0,5.62a40.92,40.92,0,0,1,2,4.82s1.2,8,7.22,9.63S241,201,241,201s-1.21,13.25-3.61,26.49-8.43,11.64-24.49,10.84-33.31,5.22-40.13,10.83S131,265.57,131,265.57s-7.63-31.71-8.43-34.92S121,213.8,121,205.77s2.81-22.08,3.61-28.9-18.06-8.83-18.87-5.62-5.61,44.55-9.23,61-1.6,37.32-2,52.57,4.81,22.08,11.23,21.28,27.3-2.81,47.77-4.42,39.33-12,39.33-12l2.81.4S184.8,306.11,186,316.54s8.83,17.66,11.24,20.47a53.25,53.25,0,0,1,5.22,8.43s2,12-1.61,16.45-16,26.09-22.07,51c-4.71,19.46-3.28,45.3-2.43,55.64" style="fill:#ccc;stroke:#263238;stroke-linecap:round;stroke-linejoin:round"></path></clipPath><clipPath id="freepik--clip-path-2--inject-4"><path d="M198.47,151.77l-20.57-2.85a2,2,0,0,0-.8-.29,2.11,2.11,0,0,0-2.38,1.79l-.17,1.29-.2,0,.18-1.29a2.1,2.1,0,1,0-4.17-.57l-.18,1.29-.19,0,.17-1.29a2.1,2.1,0,0,0-1.79-2.37,2.06,2.06,0,0,0-.86.06l-30.25-4.19a2,2,0,0,0-.81-.29,2.1,2.1,0,0,0-2.37,1.79l-.18,1.29-.2,0,.18-1.29a2.1,2.1,0,1,0-4.16-.57l-.18,1.28-.2,0,.18-1.29a2.11,2.11,0,0,0-1.8-2.37h0a2,2,0,0,0-.85.06L96.7,137.67a7.62,7.62,0,0,0-8.6,6.5l-3.2,23.06a7.63,7.63,0,0,0,6.51,8.6l29.9,4.15a2.14,2.14,0,0,0,1.06.47h0a2.1,2.1,0,0,0,2.37-1.79l.26-1.89.2,0-.26,1.89a2.1,2.1,0,1,0,4.16.57l.26-1.88.2,0-.26,1.88a2.1,2.1,0,0,0,1.79,2.37,2,2,0,0,0,1.15-.17L162,185.61a2.06,2.06,0,0,0,1,.47,2.09,2.09,0,0,0,2.37-1.79l.27-1.88.19,0-.26,1.89a2.1,2.1,0,1,0,4.17.57L170,183l.2,0-.27,1.88a2.11,2.11,0,0,0,1.8,2.37,2,2,0,0,0,1.15-.17l20.29,2.81a7.62,7.62,0,0,0,8.6-6.5l3.2-23.06A7.64,7.64,0,0,0,198.47,151.77Z" style="fill:#fff;stroke:#263238;stroke-linecap:round;stroke-linejoin:round"></path></clipPath><clipPath id="freepik--clip-path-3--inject-4"><path d="M258.46,96.88a32.21,32.21,0,0,0-12.74,3.42c-5.85,3.07-12.32,8.93-8.74,19.18,6,17.26,26.08,39.73,32.91,41.74a70,70,0,0,1,12,4.82s6,11.23-1.61,35.72-16.45,36.52-9.23,53.78,30.9,27.69,58.6,21.27,35.32-22.48,30.1-40.94-19.27-20.47-18.87-31.31,11.24-9.23,2.81-23.27-17.49-12.77-17.49-20.4,6.26-24.15-1.37-37.4C317.65,111,288.46,94.8,258.46,96.88Z" style="fill:#263238;stroke:#263238;stroke-linecap:round;stroke-linejoin:round"></path></clipPath><clipPath id="freepik--clip-path-4--inject-4"><path d="M380.78,328.88s-35,47.06-41.06,47.46-20.87-14.45-22.07-13.64-21.27,26.89-24.49,30.9,4,.8,4,.8-2.41,6.42,0,6.82,6.42-2.4,6.42-2.4-.8,5.62,1.6,4.81,7.23-4.81,7.23-4.81-4.42,5.62-.8,4.81,15.65-10,15.65-10,4.81,9.23,14.85,5.62,74.61-54.87,75-60.89-11.2-18.28-11.2-18.28" style="fill:#ccc;stroke:#263238;stroke-linecap:round;stroke-linejoin:round"></path></clipPath></defs><g id="freepik--background-simple--inject-4"><path d="M396.17,53.85s-50.53-41.27-116.25-23S186.68,105.79,149,144.72c-19.74,20.38-48.9,27.89-72.35,43.58-75,50.17-63.88,163-6.06,205.5,50.06,36.84,112.61,40.69,194,13.52S404.22,363.83,454.69,286,458.42,109.86,396.17,53.85Z" style="fill:#407BFF"></path><path d="M396.17,53.85s-50.53-41.27-116.25-23S186.68,105.79,149,144.72c-19.74,20.38-48.9,27.89-72.35,43.58-75,50.17-63.88,163-6.06,205.5,50.06,36.84,112.61,40.69,194,13.52S404.22,363.83,454.69,286,458.42,109.86,396.17,53.85Z" style="fill:#fff;opacity:0.7000000000000001"></path></g><g id="freepik--Plants--inject-4"><path d="M424.47,245.77s0-6.36-8.91-15.27-14.64-14-14.64-14-4.46,14.64,3.82,23.55,19.73,17.19,19.73,17.19Z" style="fill:#407BFF"></path><path d="M411.54,285.52s0-6.36-8.91-15.27-14.64-14-14.64-14-4.46,14.64,3.82,23.56S411.54,297,411.54,297Z" style="fill:#407BFF"></path><path d="M423.91,256.61s.67-6.33,10.48-14.25,16-12.37,16-12.37,2.89,15-6.28,23-21.44,15-21.44,15Z" style="fill:#407BFF"></path><path d="M408.29,303.56s1.33-6.22,11.91-13.07,17.25-10.63,17.25-10.63,1.29,15.25-8.67,22.23-22.89,12.67-22.89,12.67Z" style="fill:#407BFF"></path><path d="M411.22,354.74s0-6.36,8.92-15.27,14.63-14,14.63-14S439.23,340.1,431,349s-19.74,17.19-19.74,17.19Z" style="fill:#407BFF"></path><path d="M411.08,367.24s.9-6.3-6.65-16.39-12.51-15.94-12.51-15.94-6.49,13.86.44,23.85,17.09,19.82,17.09,19.82Z" style="fill:#407BFF"></path><path d="M402.29,404.26s0-6.36,8.91-15.27,14.64-14,14.64-14,4.45,14.64-3.82,23.55-19.73,17.19-19.73,17.19Z" style="fill:#407BFF"></path><path d="M408.24,437.83s-1.61-6.16,4.75-17,10.62-17.26,10.62-17.26,8,13,2.27,23.75-14.74,21.62-14.74,21.62Z" style="fill:#407BFF"></path><path d="M425.28,244.14a182.69,182.69,0,0,1-2.44,19.76c-3.53,18.2-12.33,30-15.85,46.38s6.59,37.62,3.88,58.73-10.93,32.86-8.58,46.95,15,53,15,53" style="fill:none;stroke:#263238;stroke-linecap:round;stroke-linejoin:round"></path><line x1="423.82" y1="260.84" x2="433.43" y2="253.47" style="fill:none;stroke:#263238;stroke-linecap:round;stroke-linejoin:round"></line><line x1="424.27" y1="252.36" x2="420.25" y2="245.21" style="fill:none;stroke:#263238;stroke-linecap:round;stroke-linejoin:round"></line><path d="M407.52,309.53s8-6,16.3-12.06" style="fill:none;stroke:#263238;stroke-linecap:round;stroke-linejoin:round"></path><path d="M411.54,297s-6.7-13.13-14.29-21.84" style="fill:none;stroke:#263238;stroke-linecap:round;stroke-linejoin:round"></path><path d="M411.54,363.8a99.34,99.34,0,0,1,17.2-23" style="fill:none;stroke:#263238;stroke-linecap:round;stroke-linejoin:round"></path><path d="M410,372.73a112.76,112.76,0,0,0-8.71-16.53c-4.69-6.92-5.36-7.81-5.36-7.81" style="fill:none;stroke:#263238;stroke-linecap:round;stroke-linejoin:round"></path><path d="M402.29,416a106.44,106.44,0,0,1,7.24-14.64A93.78,93.78,0,0,1,418.91,389" style="fill:none;stroke:#263238;stroke-linecap:round;stroke-linejoin:round"></path><path d="M411.14,448.91s-.94-7.62,2.41-14.09,7.15-15,8.71-18.32" style="fill:none;stroke:#263238;stroke-linecap:round;stroke-linejoin:round"></path><path d="M351.75,330.81s-.69-4,3.93-10.55,7.66-10.37,7.66-10.37,4.38,8.7.16,15.18A99.19,99.19,0,0,1,353,338Z" style="fill:#407BFF"></path><path d="M364.18,354.33s-.69-4,3.93-10.55,7.66-10.37,7.66-10.37,4.38,8.7.16,15.18a99.19,99.19,0,0,1-10.51,12.92Z" style="fill:#407BFF"></path><path d="M353.28,337.54s-1.11-3.89-8.12-7.79-11.4-6-11.4-6-.17,9.74,6.44,13.75a99.35,99.35,0,0,0,15.08,7.09Z" style="fill:#407BFF"></path><path d="M368.17,365.29s-1.51-3.76-8.89-6.91-12-4.79-12-4.79.85,9.7,7.85,13a99.1,99.1,0,0,0,15.73,5.46Z" style="fill:#407BFF"></path><path d="M371.89,397.7s-.69-4-7.25-8.61-10.7-7.19-10.7-7.19-1.2,9.66,4.95,14.35a100.11,100.11,0,0,0,14.24,8.64Z" style="fill:#407BFF"></path><path d="M373.34,405.52s-1.25-3.85,2.39-11,6.11-11.35,6.11-11.35,5.57,8,2.31,15a99.14,99.14,0,0,1-8.56,14.28Z" style="fill:#407BFF"></path><path d="M384.52,437.71s.46-4,6.74-9,10.28-7.79,10.28-7.79,1.75,9.58-4.13,14.62A100,100,0,0,1,383.69,445Z" style="fill:#407BFF"></path><path d="M382.87,427.78s-.69-4-7.25-8.61-10.7-7.19-10.7-7.19-1.2,9.66,4.95,14.35A100.11,100.11,0,0,0,384.11,435Z" style="fill:#407BFF"></path><path d="M382.78,449.48s.34-4-4.83-10.17-8.53-9.66-8.53-9.66-3.61,9,1.15,15.14a99.82,99.82,0,0,0,11.59,11.95Z" style="fill:#407BFF"></path><path d="M351.07,329.87A114.7,114.7,0,0,0,354.74,342c4.19,11,11,17.44,15,27.36s-.05,24.31,3.94,37.25,10.42,19.42,10.48,28.51-3.27,33.68-3.27,33.68" style="fill:none;stroke:#263238;stroke-linecap:round;stroke-linejoin:round"></path><line x1="353.79" y1="340.19" x2="346.97" y2="336.61" style="fill:none;stroke:#263238;stroke-linecap:round;stroke-linejoin:round"></line><line x1="352.59" y1="334.91" x2="354.34" y2="330" style="fill:none;stroke:#263238;stroke-linecap:round;stroke-linejoin:round"></line><path d="M369.3,369s-5.69-2.91-11.53-5.8" style="fill:none;stroke:#263238;stroke-linecap:round;stroke-linejoin:round"></path><path d="M365.42,361.51s2.77-9,6.59-15.25" style="fill:none;stroke:#263238;stroke-linecap:round;stroke-linejoin:round"></path><path d="M372.67,403.41a63.13,63.13,0,0,0-13.28-12.55" style="fill:none;stroke:#263238;stroke-linecap:round;stroke-linejoin:round"></path><path d="M374.62,408.85a71.59,71.59,0,0,1,3.67-11.31c2.19-4.85,2.51-5.49,2.51-5.49" style="fill:none;stroke:#263238;stroke-linecap:round;stroke-linejoin:round"></path><path d="M383.83,442s4.52-5.54,7.33-7.61a39.74,39.74,0,0,0,4.77-4.14" style="fill:none;stroke:#263238;stroke-linecap:round;stroke-linejoin:round"></path><path d="M384.14,435.12a68.78,68.78,0,0,0-6.13-8.4,60.25,60.25,0,0,0-7.22-6.68" style="fill:none;stroke:#263238;stroke-linecap:round;stroke-linejoin:round"></path><path d="M382.16,456.74a17.24,17.24,0,0,0-3-8.57c-2.8-3.7-6.1-8.61-7.45-10.54" style="fill:none;stroke:#263238;stroke-linecap:round;stroke-linejoin:round"></path><path d="M83.59,245.77s0-6.36,8.91-15.27,14.64-14,14.64-14,4.46,14.64-3.81,23.55-19.74,17.19-19.74,17.19Z" style="fill:#407BFF"></path><path d="M96.53,285.52s0-6.36,8.91-15.27,14.64-14,14.64-14,4.45,14.64-3.82,23.56S96.53,297,96.53,297Z" style="fill:#407BFF"></path><path d="M84.15,256.61s-.67-6.33-10.47-14.25-16-12.37-16-12.37-2.88,15,6.29,23,21.43,15,21.43,15Z" style="fill:#407BFF"></path><path d="M99.78,303.56s-1.34-6.22-11.92-13.07-17.25-10.63-17.25-10.63-1.28,15.25,8.67,22.23,22.9,12.67,22.9,12.67Z" style="fill:#407BFF"></path><path d="M96.84,354.74s0-6.36-8.91-15.27-14.64-14-14.64-14S68.83,340.1,77.11,349,96.84,366.2,96.84,366.2Z" style="fill:#407BFF"></path><path d="M97,367.24s-.91-6.3,6.65-16.39,12.5-15.94,12.5-15.94,6.49,13.86-.43,23.85-17.09,19.82-17.09,19.82Z" style="fill:#407BFF"></path><path d="M105.78,404.26s0-6.36-8.92-15.27-14.63-14-14.63-14S77.77,389.62,86,398.53s19.74,17.19,19.74,17.19Z" style="fill:#407BFF"></path><path d="M99.83,437.83s1.61-6.16-4.76-17-10.61-17.26-10.61-17.26-8,13-2.27,23.75,14.73,21.62,14.73,21.62Z" style="fill:#407BFF"></path><path d="M82.79,244.14a180.22,180.22,0,0,0,2.44,19.76c3.52,18.2,12.33,30,15.85,46.38S94.49,347.9,97.2,369s10.92,32.86,8.58,46.95-15,53-15,53" style="fill:none;stroke:#263238;stroke-linecap:round;stroke-linejoin:round"></path><line x1="84.24" y1="260.84" x2="74.64" y2="253.47" style="fill:none;stroke:#263238;stroke-linecap:round;stroke-linejoin:round"></line><line x1="83.8" y1="252.36" x2="87.82" y2="245.21" style="fill:none;stroke:#263238;stroke-linecap:round;stroke-linejoin:round"></line><path d="M100.54,309.53s-8-6-16.3-12.06" style="fill:none;stroke:#263238;stroke-linecap:round;stroke-linejoin:round"></path><path d="M96.53,297s6.69-13.13,14.29-21.84" style="fill:none;stroke:#263238;stroke-linecap:round;stroke-linejoin:round"></path><path d="M96.52,363.8a99.47,99.47,0,0,0-17.19-23" style="fill:none;stroke:#263238;stroke-linecap:round;stroke-linejoin:round"></path><path d="M98.09,372.73a112.76,112.76,0,0,1,8.71-16.53c4.69-6.92,5.36-7.81,5.36-7.81" style="fill:none;stroke:#263238;stroke-linecap:round;stroke-linejoin:round"></path><path d="M105.78,416a107.1,107.1,0,0,0-7.25-14.64A93.21,93.21,0,0,0,89.16,389" style="fill:none;stroke:#263238;stroke-linecap:round;stroke-linejoin:round"></path><path d="M96.92,448.91s.94-7.62-2.4-14.09-7.15-15-8.71-18.32" style="fill:none;stroke:#263238;stroke-linecap:round;stroke-linejoin:round"></path><path d="M156.31,330.81s.69-4-3.93-10.55-7.66-10.37-7.66-10.37-4.38,8.7-.16,15.18A99.19,99.19,0,0,0,155.07,338Z" style="fill:#407BFF"></path><path d="M143.89,354.33s.69-4-3.93-10.55-7.66-10.37-7.66-10.37-4.38,8.7-.16,15.18a99.53,99.53,0,0,0,10.5,12.92Z" style="fill:#407BFF"></path><path d="M154.79,337.54s1.1-3.89,8.11-7.79,11.4-6,11.4-6,.18,9.74-6.44,13.75a99.47,99.47,0,0,1-15.07,7.09Z" style="fill:#407BFF"></path><path d="M139.89,365.29s1.51-3.76,8.89-6.91,12-4.79,12-4.79-.85,9.7-7.85,13a99.1,99.1,0,0,1-15.73,5.46Z" style="fill:#407BFF"></path><path d="M136.18,397.7s.69-4,7.24-8.61,10.7-7.19,10.7-7.19,1.21,9.66-5,14.35a99.51,99.51,0,0,1-14.24,8.64Z" style="fill:#407BFF"></path><path d="M134.73,405.52s1.25-3.85-2.39-11-6.11-11.35-6.11-11.35-5.58,8-2.32,15a99.75,99.75,0,0,0,8.57,14.28Z" style="fill:#407BFF"></path><path d="M123.54,437.71s-.46-4-6.74-9-10.27-7.79-10.27-7.79-1.76,9.58,4.12,14.62A100,100,0,0,0,124.37,445Z" style="fill:#407BFF"></path><path d="M125.2,427.78s.69-4,7.24-8.61,10.7-7.19,10.7-7.19,1.21,9.66-4.95,14.35A99.51,99.51,0,0,1,124,435Z" style="fill:#407BFF"></path><path d="M125.29,449.48s-.35-4,4.82-10.17,8.53-9.66,8.53-9.66,3.62,9-1.15,15.14a99.82,99.82,0,0,1-11.59,11.95Z" style="fill:#407BFF"></path><path d="M157,329.87A117,117,0,0,1,153.32,342c-4.18,11-11,17.44-15,27.36s0,24.31-3.95,37.25S124,426,123.93,435.12s3.27,33.68,3.27,33.68" style="fill:none;stroke:#263238;stroke-linecap:round;stroke-linejoin:round"></path><line x1="154.27" y1="340.19" x2="161.09" y2="336.61" style="fill:none;stroke:#263238;stroke-linecap:round;stroke-linejoin:round"></line><line x1="155.47" y1="334.91" x2="153.73" y2="330" style="fill:none;stroke:#263238;stroke-linecap:round;stroke-linejoin:round"></line><path d="M138.76,369s5.7-2.91,11.53-5.8" style="fill:none;stroke:#263238;stroke-linecap:round;stroke-linejoin:round"></path><path d="M142.64,361.51s-2.77-9-6.59-15.25" style="fill:none;stroke:#263238;stroke-linecap:round;stroke-linejoin:round"></path><path d="M135.39,403.41a63.44,63.44,0,0,1,13.28-12.55" style="fill:none;stroke:#263238;stroke-linecap:round;stroke-linejoin:round"></path><path d="M133.44,408.85a71.59,71.59,0,0,0-3.67-11.31c-2.19-4.85-2.51-5.49-2.51-5.49" style="fill:none;stroke:#263238;stroke-linecap:round;stroke-linejoin:round"></path><path d="M124.24,442s-4.52-5.54-7.34-7.61a40.08,40.08,0,0,1-4.76-4.14" style="fill:none;stroke:#263238;stroke-linecap:round;stroke-linejoin:round"></path><path d="M123.93,435.12a67.58,67.58,0,0,1,6.13-8.4,59.73,59.73,0,0,1,7.21-6.68" style="fill:none;stroke:#263238;stroke-linecap:round;stroke-linejoin:round"></path><path d="M125.9,456.74a17.36,17.36,0,0,1,3-8.57c2.81-3.7,6.11-8.61,7.45-10.54" style="fill:none;stroke:#263238;stroke-linecap:round;stroke-linejoin:round"></path></g><g id="freepik--Character--inject-4"><path d="M344.84,468.5c.42-8.88.54-29.33-5.52-48.41-8-25.29-24.08-59.4-27.69-65s0-12,0-12a191.57,191.57,0,0,0,9.23-43.75s2,.81,7.62,6,56.16,36.24,64.18,37.85,19.95-2.27,22.76-7.89-52.82-64.07-67.67-78.52-51-12-57-15.65-6.43-8.43-2.41-23.68,17.26-29.3,18.86-41.74-7.62-36.52-28.49-49S243,121.49,243,121.49s-11.64,10-13.25,17.66-.8,10.43-6,13.64-13.24,2-12.44,4.82,2.81,9.63,6.82,10c0,0-5.62,5.22-4.41,7.63a12,12,0,0,1,1.2,4.81s-1.2,3.21,0,5.62a40.92,40.92,0,0,1,2,4.82s1.2,8,7.22,9.63S241,201,241,201s-1.21,13.25-3.61,26.49-8.43,11.64-24.49,10.84-33.31,5.22-40.13,10.83S131,265.57,131,265.57s-7.63-31.71-8.43-34.92S121,213.8,121,205.77s2.81-22.08,3.61-28.9-18.06-8.83-18.87-5.62-5.61,44.55-9.23,61-1.6,37.32-2,52.57,4.81,22.08,11.23,21.28,27.3-2.81,47.77-4.42,39.33-12,39.33-12l2.81.4S184.8,306.11,186,316.54s8.83,17.66,11.24,20.47a53.25,53.25,0,0,1,5.22,8.43s2,12-1.61,16.45-16,26.09-22.07,51c-4.71,19.46-3.28,45.3-2.43,55.64" style="fill:#ccc"></path><g style="clip-path:url(#freepik--clip-path--inject-4)"><g style="opacity:0.2"><path d="M176.25,268.16c-7.09-1.09-24,14.18-38.72,21.81s-27.82,5.46-36.54,4.37a22.64,22.64,0,0,1-6.13-1.66c1.28,9.74,5.68,14.07,10.87,13.43,6.43-.81,27.3-2.81,47.77-4.42s39.33-12,39.33-12l2.81.4s-1.68,2.49-3.64,6.13c4-1.65,7.16-2.93,7.16-2.93S183.34,269.25,176.25,268.16Z"></path><path d="M347.75,256.74c-7.14-6.94-19.17-10-30.43-11.68h0c-12.18-1.84-23.44-2.09-26.57-4-6-3.61-6.43-8.43-2.41-23.68s17.26-29.3,18.86-41.74-7.62-36.52-28.49-49S243,121.49,243,121.49s-1.64,1.41-3.77,3.57c3,7.28,13.65,32.65,21.56,40.56,9.28,9.27,6.55,21.27-.54,25.63s-36.12,8.9-36.12,8.9l39.39-.17,12.54,29.45s-16.9,26.73-7.09,39.27,42.55,25.09,61.09,4.37a37.55,37.55,0,0,0,5.8-9.41c12.3,12.37,27.58,27.78,38.92,39.4,17.61,18,29.12,29.31,33.23,38.08,3.43-1.47,6.23-3.51,7.41-5.88C418.23,329.65,362.6,271.19,347.75,256.74Z"></path><path d="M311.63,355.07c-3.62-5.62,0-12,0-12a191.57,191.57,0,0,0,9.23-43.75,5.78,5.78,0,0,1,.61.33c-7.9-6.27-19.78-15.26-20.86-13.45-1.64,2.72.54,13.63,1.63,28.36s-12,34.9-4.36,49.63,32.73,32.18,43.09,62.18l.36,1c-.58-2.43-1.25-4.86-2-7.27C331.29,394.8,315.24,360.69,311.63,355.07Z"></path></g></g><path d="M344.84,468.5c.42-8.88.54-29.33-5.52-48.41-8-25.29-24.08-59.4-27.69-65s0-12,0-12a191.57,191.57,0,0,0,9.23-43.75s2,.81,7.62,6,56.16,36.24,64.18,37.85,19.95-2.27,22.76-7.89-52.82-64.07-67.67-78.52-51-12-57-15.65-6.43-8.43-2.41-23.68,17.26-29.3,18.86-41.74-7.62-36.52-28.49-49S243,121.49,243,121.49s-11.64,10-13.25,17.66-.8,10.43-6,13.64-13.24,2-12.44,4.82,2.81,9.63,6.82,10c0,0-5.62,5.22-4.41,7.63a12,12,0,0,1,1.2,4.81s-1.2,3.21,0,5.62a40.92,40.92,0,0,1,2,4.82s1.2,8,7.22,9.63S241,201,241,201s-1.21,13.25-3.61,26.49-8.43,11.64-24.49,10.84-33.31,5.22-40.13,10.83S131,265.57,131,265.57s-7.63-31.71-8.43-34.92S121,213.8,121,205.77s2.81-22.08,3.61-28.9-18.06-8.83-18.87-5.62-5.61,44.55-9.23,61-1.6,37.32-2,52.57,4.81,22.08,11.23,21.28,27.3-2.81,47.77-4.42,39.33-12,39.33-12l2.81.4S184.8,306.11,186,316.54s8.83,17.66,11.24,20.47a53.25,53.25,0,0,1,5.22,8.43s2,12-1.61,16.45-16,26.09-22.07,51c-4.71,19.46-3.28,45.3-2.43,55.64" style="fill:none;stroke:#263238;stroke-linecap:round;stroke-linejoin:round"></path><path d="M235.36,152.48l-2.56,1.92s3.2,6.39,11.82-.32C244.62,154.08,238.55,154.4,235.36,152.48Z" style="fill:#263238;stroke:#263238;stroke-linecap:round;stroke-linejoin:round"></path><path d="M236.32,141s5.43-5.43,12.14,3.51" style="fill:none;stroke:#263238;stroke-linecap:round;stroke-linejoin:round;stroke-width:2px"></path><path d="M234.08,162.07a19.67,19.67,0,0,1,9.9-.32" style="fill:none;stroke:#263238;stroke-linecap:round;stroke-linejoin:round;stroke-width:0.5px"></path><path d="M236,163.66a25.8,25.8,0,0,1,9.26,0" style="fill:none;stroke:#263238;stroke-linecap:round;stroke-linejoin:round;stroke-width:0.5px"></path><line x1="214.69" y1="245.86" x2="243.68" y2="251.23" style="fill:none;stroke:#263238;stroke-linecap:round;stroke-linejoin:round"></line><line x1="280.19" y1="249.08" x2="256.56" y2="251.23" style="fill:none;stroke:#263238;stroke-linecap:round;stroke-linejoin:round"></line><polyline points="306.5 289.35 320.86 299.28 304.35 294.18" style="fill:none;stroke:#263238;stroke-linecap:round;stroke-linejoin:round"></polyline><line x1="192.83" y1="289.65" x2="178.18" y2="278.61" style="fill:none;stroke:#263238;stroke-linecap:round;stroke-linejoin:round"></line><path d="M131,265.57s-4.92,9.82-14.05,14.12" style="fill:none;stroke:#263238;stroke-linecap:round;stroke-linejoin:round"></path><rect x="203.32" y="166.5" width="12.04" height="12.44" transform="translate(25.68 -27.1) rotate(7.89)" style="fill:#fff;stroke:#263238;stroke-linecap:round;stroke-linejoin:round"></rect><path d="M198.47,151.77l-20.57-2.85a2,2,0,0,0-.8-.29,2.11,2.11,0,0,0-2.38,1.79l-.17,1.29-.2,0,.18-1.29a2.1,2.1,0,1,0-4.17-.57l-.18,1.29-.19,0,.17-1.29a2.1,2.1,0,0,0-1.79-2.37,2.06,2.06,0,0,0-.86.06l-30.25-4.19a2,2,0,0,0-.81-.29,2.1,2.1,0,0,0-2.37,1.79l-.18,1.29-.2,0,.18-1.29a2.1,2.1,0,1,0-4.16-.57l-.18,1.28-.2,0,.18-1.29a2.11,2.11,0,0,0-1.8-2.37h0a2,2,0,0,0-.85.06L96.7,137.67a7.62,7.62,0,0,0-8.6,6.5l-3.2,23.06a7.63,7.63,0,0,0,6.51,8.6l29.9,4.15a2.14,2.14,0,0,0,1.06.47h0a2.1,2.1,0,0,0,2.37-1.79l.26-1.89.2,0-.26,1.89a2.1,2.1,0,1,0,4.16.57l.26-1.88.2,0-.26,1.88a2.1,2.1,0,0,0,1.79,2.37,2,2,0,0,0,1.15-.17L162,185.61a2.06,2.06,0,0,0,1,.47,2.09,2.09,0,0,0,2.37-1.79l.27-1.88.19,0-.26,1.89a2.1,2.1,0,1,0,4.17.57L170,183l.2,0-.27,1.88a2.11,2.11,0,0,0,1.8,2.37,2,2,0,0,0,1.15-.17l20.29,2.81a7.62,7.62,0,0,0,8.6-6.5l3.2-23.06A7.64,7.64,0,0,0,198.47,151.77Z" style="fill:#fff"></path><g style="clip-path:url(#freepik--clip-path-2--inject-4)"><path d="M86.11,165.56l71-17.34,37,5a8.27,8.27,0,0,1,7.1,9.25l-2.3,17.75a8.26,8.26,0,0,1-9.43,7.11L95.34,173.05a11.74,11.74,0,0,1-9.23-7.49Z" style="fill:#407BFF"></path><path d="M105.7,169.08s4.83-2.68,8-4.29,15.57-2.15,15.57-2.15l10.74-14.5" style="fill:none;stroke:#263238;stroke-linecap:round;stroke-linejoin:round"></path><line x1="160.46" y1="154.59" x2="152.41" y2="173.38" style="fill:none;stroke:#263238;stroke-linecap:round;stroke-linejoin:round"></line></g><path d="M198.47,151.77l-20.57-2.85a2,2,0,0,0-.8-.29,2.11,2.11,0,0,0-2.38,1.79l-.17,1.29-.2,0,.18-1.29a2.1,2.1,0,1,0-4.17-.57l-.18,1.29-.19,0,.17-1.29a2.1,2.1,0,0,0-1.79-2.37,2.06,2.06,0,0,0-.86.06l-30.25-4.19a2,2,0,0,0-.81-.29,2.1,2.1,0,0,0-2.37,1.79l-.18,1.29-.2,0,.18-1.29a2.1,2.1,0,1,0-4.16-.57l-.18,1.28-.2,0,.18-1.29a2.11,2.11,0,0,0-1.8-2.37h0a2,2,0,0,0-.85.06L96.7,137.67a7.62,7.62,0,0,0-8.6,6.5l-3.2,23.06a7.63,7.63,0,0,0,6.51,8.6l29.9,4.15a2.14,2.14,0,0,0,1.06.47h0a2.1,2.1,0,0,0,2.37-1.79l.26-1.89.2,0-.26,1.89a2.1,2.1,0,1,0,4.16.57l.26-1.88.2,0-.26,1.88a2.1,2.1,0,0,0,1.79,2.37,2,2,0,0,0,1.15-.17L162,185.61a2.06,2.06,0,0,0,1,.47,2.09,2.09,0,0,0,2.37-1.79l.27-1.88.19,0-.26,1.89a2.1,2.1,0,1,0,4.17.57L170,183l.2,0-.27,1.88a2.11,2.11,0,0,0,1.8,2.37,2,2,0,0,0,1.15-.17l20.29,2.81a7.62,7.62,0,0,0,8.6-6.5l3.2-23.06A7.64,7.64,0,0,0,198.47,151.77Z" style="fill:none;stroke:#263238;stroke-linecap:round;stroke-linejoin:round"></path><line x1="174.35" y1="151.68" x2="170.01" y2="183.01" style="fill:#fff;stroke:#263238;stroke-linecap:round;stroke-linejoin:round"></line><line x1="170.18" y1="151.11" x2="165.84" y2="182.43" style="fill:#fff;stroke:#263238;stroke-linecap:round;stroke-linejoin:round"></line><line x1="133.7" y1="146.05" x2="129.36" y2="177.38" style="fill:#fff;stroke:#263238;stroke-linecap:round;stroke-linejoin:round"></line><line x1="129.54" y1="145.47" x2="125.2" y2="176.8" style="fill:#fff;stroke:#263238;stroke-linecap:round;stroke-linejoin:round"></line><line x1="206.68" y1="166.27" x2="205.01" y2="178.36" style="fill:#fff;stroke:#263238;stroke-linecap:round;stroke-linejoin:round"></line><line x1="209.06" y1="166.6" x2="207.38" y2="178.69" style="fill:#fff;stroke:#263238;stroke-linecap:round;stroke-linejoin:round"></line><line x1="211.44" y1="166.93" x2="209.76" y2="179.02" style="fill:#fff;stroke:#263238;stroke-linecap:round;stroke-linejoin:round"></line><path d="M186,316.54c1.21,10.44,8.83,17.66,11.24,20.47a53.25,53.25,0,0,1,5.22,8.43,43.5,43.5,0,0,1,.29,11.3c4.1.4,11.1,6.52,49.08,8,23.72.91,53-5.89,60.47-8.5-.25-.45-.48-.84-.67-1.13-3.62-5.62,0-12,0-12a175.19,175.19,0,0,0,6.64-25.28c-5.47-.13-22.06-1.74-28.72-16.06-6.75-14.52,5.82-48.37,10-58.73-4.16-.49-7.33-1-8.76-1.87l-.19-.13c-2.82,9.68-11.15,36.79-18.68,46.28-9.23,11.64-26.49,14.45-40.13,8.83s-16.46-17.26-14.85-25.28c1.27-6.36,11.36-25.82,15.49-33.63-1.87,1.17-4.28,1.58-7.41,1.63l-29.35,51.26S184.8,306.11,186,316.54Z" style="fill:#263238;stroke:#263238;stroke-linecap:round;stroke-linejoin:round"></path><path d="M240.41,343a78.86,78.86,0,0,0,45.93,4.46" style="fill:none;stroke:#828282;stroke-linecap:round;stroke-linejoin:round"></path><path d="M228.15,336.21a39.77,39.77,0,0,0,4.12,2.71" style="fill:none;stroke:#828282;stroke-linecap:round;stroke-linejoin:round"></path><path d="M258.46,96.88a32.21,32.21,0,0,0-12.74,3.42c-5.85,3.07-12.32,8.93-8.74,19.18,6,17.26,26.08,39.73,32.91,41.74a70,70,0,0,1,12,4.82s6,11.23-1.61,35.72-16.45,36.52-9.23,53.78,30.9,27.69,58.6,21.27,35.32-22.48,30.1-40.94-19.27-20.47-18.87-31.31,11.24-9.23,2.81-23.27-17.49-12.77-17.49-20.4,6.26-24.15-1.37-37.4C317.65,111,288.46,94.8,258.46,96.88Z" style="fill:#263238"></path><g style="clip-path:url(#freepik--clip-path-3--inject-4)"><path d="M236.42,103.45s13.82,30.53,38.89,46S328,161.3,328,161.3" style="fill:none;stroke:#828282;stroke-linecap:round;stroke-linejoin:round"></path><path d="M252.81,94.45s28.28,55.92,51.75,61.38,26,2.9,26,2.9" style="fill:none;stroke:#828282;stroke-linecap:round;stroke-linejoin:round"></path><path d="M286.61,111.51c6.57,14.5,16.68,33.7,26,38.54,15.43,8,21.53,2.57,21.53,2.57" style="fill:none;stroke:#828282;stroke-linecap:round;stroke-linejoin:round"></path><path d="M279.49,94.45s1.65,4.45,4.39,10.85" style="fill:none;stroke:#828282;stroke-linecap:round;stroke-linejoin:round"></path><path d="M290.74,157.12s16.71,16.39,14.78,35.67S294,220,290.76,241.09s10.26,36.23,26.33,35.58,13.5-19,3.21-21.53-12.21,7.39-7.71,10.61,7.07-1.29,7.07-2.25" style="fill:none;stroke:#828282;stroke-linecap:round;stroke-linejoin:round"></path><path d="M305.2,161s11.89,10.28,11.89,29.88-5.78,22.82-3.21,34.07,17,8.36,23.14,22.5,2.57,25.07-3.86,29.89" style="fill:none;stroke:#828282;stroke-linecap:round;stroke-linejoin:round"></path><path d="M317.41,161.94s15.75,11.25,18.64,26.35-15.1,11.57-3.53,31.82,36.31,23.46,24.42,44.35" style="fill:none;stroke:#828282;stroke-linecap:round;stroke-linejoin:round"></path></g><path d="M258.46,96.88a32.21,32.21,0,0,0-12.74,3.42c-5.85,3.07-12.32,8.93-8.74,19.18,6,17.26,26.08,39.73,32.91,41.74a70,70,0,0,1,12,4.82s6,11.23-1.61,35.72-16.45,36.52-9.23,53.78,30.9,27.69,58.6,21.27,35.32-22.48,30.1-40.94-19.27-20.47-18.87-31.31,11.24-9.23,2.81-23.27-17.49-12.77-17.49-20.4,6.26-24.15-1.37-37.4C317.65,111,288.46,94.8,258.46,96.88Z" style="fill:none;stroke:#263238;stroke-linecap:round;stroke-linejoin:round"></path><path d="M241,201s-.23,2.52-.69,6.46l23.16-9.27Z" style="fill:#263238;stroke:#263238;stroke-linecap:round;stroke-linejoin:round"></path><path d="M344.84,468.5c.42-8.88.54-29.33-5.52-48.41-2.15-6.77-4.87-14.17-7.78-21.49-10.28,4.44-33.75,12.5-72.89,15.07-39.9,2.62-65-8.49-75.76-14.79-1.54,4.48-2.94,9.17-4.11,14-4.71,19.46-3.28,45.3-2.43,55.64" style="fill:#407BFF;stroke:#263238;stroke-linecap:round;stroke-linejoin:round"></path><line x1="283.46" y1="405.12" x2="254.52" y2="454.25" style="fill:none;stroke:#263238;stroke-linecap:round;stroke-linejoin:round"></line><path d="M196,399.74s4.71,18.17,15.48,33.65" style="fill:none;stroke:#263238;stroke-linecap:round;stroke-linejoin:round"></path><path d="M380.78,328.88s-35,47.06-41.06,47.46-20.87-14.45-22.07-13.64-21.27,26.89-24.49,30.9,4,.8,4,.8-2.41,6.42,0,6.82,6.42-2.4,6.42-2.4-.8,5.62,1.6,4.81,7.23-4.81,7.23-4.81-4.42,5.62-.8,4.81,15.65-10,15.65-10,4.81,9.23,14.85,5.62,74.61-54.87,75-60.89-11.2-18.28-11.2-18.28" style="fill:#ccc"></path><g style="clip-path:url(#freepik--clip-path-4--inject-4)"><path d="M417.14,338.33c.41-6-12.31-19.65-12.31-19.65l-9.32,3.95-1.21.64s9.94,6.52,4.48,17.43-45.27,48-52.9,51.81-13.09-2.18-17.46-1.64c-2.29.29-6.41,4.66-9.87,9,4.3-2.85,8.73-6.25,8.73-6.25s4.81,9.23,14.85,5.62S416.74,344.35,417.14,338.33Z" style="opacity:0.2"></path></g><path d="M380.78,328.88s-35,47.06-41.06,47.46-20.87-14.45-22.07-13.64-21.27,26.89-24.49,30.9,4,.8,4,.8-2.41,6.42,0,6.82,6.42-2.4,6.42-2.4-.8,5.62,1.6,4.81,7.23-4.81,7.23-4.81-4.42,5.62-.8,4.81,15.65-10,15.65-10,4.81,9.23,14.85,5.62,74.61-54.87,75-60.89-11.2-18.28-11.2-18.28" style="fill:none;stroke:#263238;stroke-linecap:round;stroke-linejoin:round"></path><line x1="312.43" y1="398.82" x2="324.87" y2="385.97" style="fill:#fff;stroke:#263238;stroke-linecap:round;stroke-linejoin:round"></line><line x1="303.6" y1="398.82" x2="319.25" y2="381.16" style="fill:#fff;stroke:#263238;stroke-linecap:round;stroke-linejoin:round"></line><line x1="297.18" y1="394.4" x2="314.03" y2="375.14" style="fill:#fff;stroke:#263238;stroke-linecap:round;stroke-linejoin:round"></line><path d="M117.78,201.35s12-11.23,21.27-11.23,12.44,0,14-3.62,13.25-10,14.85-14-7.22-3.21-12.44-.4a30.54,30.54,0,0,0-8,6s-16.06-4.42-23.28-4.42-12.44,9.63-12.85,14.45" style="fill:#ccc;stroke:#263238;stroke-linecap:round;stroke-linejoin:round"></path><path d="M271.09,168.44s6-19.26,12.84-14.85,5.62,16.86.4,22.48-8,4.82-10.83,1.6" style="fill:#a6a6a6;stroke:#263238;stroke-linecap:round;stroke-linejoin:round"></path><path d="M241,371.8A1.76,1.76,0,1,1,239.2,370,1.76,1.76,0,0,1,241,371.8Z" style="fill:#fff;stroke:#263238;stroke-linecap:round;stroke-linejoin:round"></path></g></svg>